<svg id="_1" data-name="1" xmlns="http://www.w3.org/2000/svg" viewBox="0 0 200 44"><defs><style>.cls-1{font-size:13.92px;font-family:Montserrat-Bold, Montserrat;font-weight:700;}.cls-1,.cls-3{fill:#fff;}.cls-2{letter-spacing:-0.07em;}.cls-3{font-size:9.39px;font-family:Montserrat-Medium, Montserrat;font-weight:500;letter-spacing:0.07em;}.cls-4{letter-spacing:0.06em;}.cls-5{letter-spacing:0.07em;}.cls-6{letter-spacing:0em;}.cls-7{letter-spacing:0.06em;}.cls-8{letter-spacing:0.07em;}.cls-9{letter-spacing:0.07em;}.cls-10{fill:#749df3;}</style></defs><g id="Layer_6" data-name="Layer 6"><text class="cls-1" transform="translate(53.9 30.53)">JOSHGUN<tspan class="cls-2" x="72.34" y="0">L</tspan><tspan x="79.75" y="0">Y NESIL</tspan></text><text class="cls-3" transform="translate(66.03 41.53)">H<tspan class="cls-4" x="8.29" y="0">OJ</tspan><tspan class="cls-5" x="22.03" y="0">A</tspan><tspan class="cls-6" x="29.56" y="0">L</tspan><tspan class="cls-7" x="35.12" y="0">Y</tspan><tspan x="41.74" y="0">K JEMG</tspan><tspan class="cls-8" x="82.3" y="0">Y</tspan><tspan class="cls-7" x="89.01" y="0">Ý</tspan><tspan class="cls-9" x="95.63" y="0">ETI</tspan></text><path class="cls-10" d="M39.63,0l-.92.07A30,30,0,0,0,24.26,5a30.8,30.8,0,0,0-7.61,7.15,30.32,30.32,0,0,0-5.37,24.77,6.23,6.23,0,0,0,.41,1.54c.05,0,.05,0-.12-.69a30,30,0,0,1-.73-10,4.45,4.45,0,0,1,.07-.5s.36,0,.78.1c1.6.24,3.72.46,5.4.55l1,.05,0,.41a42,42,0,0,0,.63,4.29,19.57,19.57,0,0,0,.84,3.16s0,0,0-.07c-.08-.21-.41-1.48-.57-2.21a40.56,40.56,0,0,1-.81-5.12l0-.41h2.39c1.32,0,2.85,0,3.39,0,1.17-.07,3-.22,3.73-.31l.51-.05s.15.54.32,1.2c.3,1.19.53,2,.83,3,.2.68.2.66.22.63a1.25,1.25,0,0,0-.07-.32c-.38-1.24-1.26-4.48-1.22-4.51l.86-.13a63.07,63.07,0,0,0,10.66-2.4l.55-.18.43,1.25.75,2.12c.17.49.32.88.32.87s-.3-1-.69-2.14-.71-2.12-.7-2.13l.52-.18a62.36,62.36,0,0,0,9.58-4.24c.64-.35.66-.36.7-.26s.12.29.23.53c.39.88.87,2.07,1.47,3.64,0,.07.06.12.06.11s-1-2.75-1.55-3.93a1.94,1.94,0,0,1-.18-.49c.09,0,1.61-.94,2.28-1.36A62.77,62.77,0,0,0,58.74,15a1.68,1.68,0,0,1,.31-.21s.18.29.37.62A38.4,38.4,0,0,1,62,20.62a3.79,3.79,0,0,0,.31.66,2.44,2.44,0,0,0-.22-.64,38.8,38.8,0,0,0-2.56-5.17l-.4-.69a3.31,3.31,0,0,1,.52-.46c1.2-1,2.1-1.75,3.42-3,.42-.39.79-.71.8-.71A13.83,13.83,0,0,1,65.05,12a31.49,31.49,0,0,1,2.34,3.48c.36.61,1.15,2.21,1.44,2.89s.3.66.35.61a27.36,27.36,0,0,0-1.76-3.66A30.46,30.46,0,0,0,43.59.1C42.89,0,40.16,0,39.63,0Zm3.08.47a4.26,4.26,0,0,1,.65.05,4.09,4.09,0,0,1-.51.35c-.56.35-.45.33-1.3.14A20,20,0,0,0,39.38.65c-.75-.08-.85-.1-.55-.11l.71-.05C40.23.45,41.92.44,42.71.48ZM45.17.7A30.54,30.54,0,0,1,49,1.43c.73.2,2.24.67,2.24.7s-.76.63-1.71,1.34l-.77.58-.6-.36a24.7,24.7,0,0,0-4.91-2.21,1.22,1.22,0,0,1-.37-.15s.27-.19.56-.39a2,2,0,0,1,.69-.35A9.12,9.12,0,0,1,45.17.7ZM39,1a16.77,16.77,0,0,1,2.81.46.73.73,0,0,1-.17.12c-.09,0-.45.24-.79.44l-1.21.65L39,3l-.41-.27a10.83,10.83,0,0,0-3.35-1.52L35,1.16l.25,0A22.82,22.82,0,0,1,39,1Zm-3.78.6a8.58,8.58,0,0,1,1.95.65,9,9,0,0,1,1.52.85,31.09,31.09,0,0,1-4.83,2s-1.16-3.37-1.16-3.43.17-.07.59-.13A7.56,7.56,0,0,1,35.21,1.64Zm8,.22c.68.21,1.64.56,2.35.86a23.24,23.24,0,0,1,2.86,1.49A27.69,27.69,0,0,1,45.81,6c-.9.54-2.19,1.26-2.26,1.26a5.06,5.06,0,0,1-.49-.51,25.7,25.7,0,0,0-3.55-3.35c-.06,0-.1-.08-.08-.09s.37-.21.79-.43S41.3,2.25,41.67,2C42.44,1.58,42.35,1.59,43.26,1.86ZM32.8,3.52l.61,1.73a18.41,18.41,0,0,1-2.16.66,30.57,30.57,0,0,1-3.27.7,8.2,8.2,0,0,1,.6-1.37,7.69,7.69,0,0,1,2.47-2.89,5.63,5.63,0,0,1,1.08-.53A7,7,0,0,1,32.8,3.52ZM52,2.4a32.93,32.93,0,0,1,5.48,2.74l.14.1-.51.48c-.89.83-2.76,2.43-3,2.58,0,0-.24-.14-.6-.49a31.33,31.33,0,0,0-4.06-3.29c-.28-.18-.52-.35-.54-.37a4.17,4.17,0,0,1,.68-.56c.4-.29,1-.73,1.28-1l.56-.43Zm-22.46.66a11,11,0,0,0-1.71,3c-.12.3-.22.56-.24.58a31.69,31.69,0,0,1-3.44.43s.34-.38.78-.82A17.64,17.64,0,0,1,29.37,3l.47-.25S29.72,2.89,29.57,3.06Zm10,.69a22,22,0,0,1,2.12,1.82,23.13,23.13,0,0,1,1.63,1.74,36.45,36.45,0,0,1-3.75,1.77c-1.23.5-3.75,1.4-3.93,1.4s-.4-1-.87-2.45S34,5.57,34,5.55a1.37,1.37,0,0,1,.49-.22,41.87,41.87,0,0,0,4-1.65c.29-.13.56-.25.59-.25A2.34,2.34,0,0,1,39.61,3.75Zm-12.94.42a19.21,19.21,0,0,0-2.58,2.44l-.49.55S22,7.27,22,7.25A19.52,19.52,0,0,1,23.66,6c.73-.51,1.5-1,2.36-1.5C26.69,4.08,26.94,4,26.67,4.17ZM49.6,4.9a28.57,28.57,0,0,1,3.65,2.88c.58.53.69.65.64.71S52.18,9.8,51.33,10.4s-1.88,1.26-3,1.93c-.67.4-.83.48-.88.43s-.26-.4-.52-.82A45,45,0,0,0,44.15,8c-.29-.36-.51-.66-.51-.67l.73-.4C45.59,6.27,46.83,5.52,48,4.7,48.75,4.23,48.56,4.2,49.6,4.9Zm8.85.87a30.8,30.8,0,0,1,4.74,4.07l.48.5-.2.21c-.81.84-4.27,3.88-4.48,3.94a7.93,7.93,0,0,1-.63-.89,35.09,35.09,0,0,0-3.84-4.8,3,3,0,0,1-.3-.35c1.09-.86,2.19-1.8,3-2.59l.57-.51S58.12,5.53,58.45,5.77ZM33.7,6.06c.16.47,1.54,4.37,1.58,4.47a28.94,28.94,0,0,1-5.6,1.37c-.88.14-2.54.36-2.77.36s-.13,0-.11-.19.06-.48.09-.81a24,24,0,0,1,.79-3.81l.13-.39.64-.12c1.37-.26,3.13-.69,4.33-1.06a5.89,5.89,0,0,1,.73-.2S33.63,5.85,33.7,6.06ZM27.42,7.44a23.46,23.46,0,0,0-.74,4.19c-.05.56-.07.68-.13.68l-.85.07c-1.12.09-3.84.17-4.47.13l-.53,0,.29-.6A22.43,22.43,0,0,1,23.48,8l.3-.38.3,0c1.76-.19,2.16-.24,2.64-.31l.66-.09h.13Zm16.86,1a40,40,0,0,1,2.36,3.24c.66,1,.78,1.2.75,1.23s-1.24.7-2,1.08c-1.46.76-3.57,1.7-5.15,2.31-1,.37-2.4.88-2.42.85s-2.15-6.4-2.16-6.46a9.33,9.33,0,0,1,1.08-.4A48.48,48.48,0,0,0,42.93,7.7l.55-.28.09.1ZM23.15,7.74a22.38,22.38,0,0,0-2.36,3.87c-.36.74-.45.88-.53.88-.43,0-3.15-.22-3.19-.25a2.25,2.25,0,0,1,.25-.35A30.66,30.66,0,0,1,21,8l.44-.39.63,0,.9,0h.26ZM54.71,9.23a34.71,34.71,0,0,1,3.64,4.53l.55.82-.16.12c-.79.67-2.87,2.18-4.38,3.18-1.22.8-3.11,1.95-3.18,1.93s-.28-.53-.58-1.16c-.83-1.78-1.72-3.46-2.63-5a6.22,6.22,0,0,1-.38-.69l1-.61a53.11,53.11,0,0,0,4.74-3.19c.39-.29.72-.53.74-.53S54.39,8.88,54.71,9.23ZM35.41,10.9c0,.11.21.61.38,1.11l1.77,5,.07.19-.51.16a53.14,53.14,0,0,1-9.26,2l-.92.11a9.71,9.71,0,0,1-.21-2.11c-.06-1,0-4.6,0-4.83s.07-.14.17-.15c.95-.09,3-.42,4.29-.67.9-.19,3-.7,3.61-.89l.47-.14A.53.53,0,0,1,35.41,10.9ZM17.64,12.51c.38,0,1.12.09,1.65.12l1,.06s-.07.19-.16.4a30.48,30.48,0,0,0-1.71,6.09c0,.16-.06.36-.08.43l0,.13-.56,0A47.16,47.16,0,0,1,13,19.17a2,2,0,0,1,.16-.43,29.79,29.79,0,0,1,2.45-4.51,15.56,15.56,0,0,1,1.29-1.78Zm8.92,1.57a43.05,43.05,0,0,0,.16,4.5c0,.5.06.93.06.94s-2.42.21-3.53.26-4.69,0-4.75,0a20.9,20.9,0,0,1,.41-2.14,27.66,27.66,0,0,1,1.45-4.4l.22-.52,1.88,0c1.69,0,2.58-.07,3.59-.17l.44-.05h.1Zm21.32-.46c.61,1,1.19,2.08,1.78,3.25s1.47,3,1.43,3S49.14,21,48,21.54a55,55,0,0,1-5.5,2.4,22,22,0,0,1-2.1.73c-.07-.09-2.46-7.38-2.43-7.41s.31-.13.64-.25a56,56,0,0,0,8.17-3.62c.39-.22.72-.39.73-.39A4.66,4.66,0,0,1,47.88,13.62ZM37.79,17.68c.66,1.85,2.46,7,2.46,7A34.76,34.76,0,0,1,36,26a56.83,56.83,0,0,1-6.29,1.24l-1.29.18-.17,0-.21-1c-.26-1.2-.54-2.67-.72-3.81-.2-1.35-.4-3-.36-3s1.87-.25,2.45-.34A56.22,56.22,0,0,0,37,17.54a5.86,5.86,0,0,1,.63-.19S37.73,17.5,37.79,17.68ZM14,19.61c1.16.15,2.69.29,3.55.33a5.44,5.44,0,0,1,.67.06s0,.27-.07.55A29.65,29.65,0,0,0,18,24.38c0,1.16,0,2.07,0,2.56a5.27,5.27,0,0,1,0,.8s-1.54-.07-2.75-.18-2.15-.23-3.38-.42l-1-.15,0-.27c.06-.49.3-1.83.46-2.57A31.14,31.14,0,0,1,12.66,20l.21-.54.14,0Zm12.79.13s.05.47.11,1c.23,1.85.55,3.7,1,5.66.12.57.22,1,.22,1.05s-1.8.19-2.73.25c-2,.14-3.38.18-5.31.15-1.05,0-1.92,0-1.94-.06s-.06-.61-.09-1.31a34.05,34.05,0,0,1,.26-5.71c0-.32.08-.61.09-.64S18.7,20,20.58,20a44.64,44.64,0,0,0,4.73-.18c.67-.06,1.33-.12,1.48-.15A0,0,0,0,1,26.83,19.74Z"/></g></svg>