<?xml version="1.0" encoding="UTF-8"?>
<!DOCTYPE svg PUBLIC "-//W3C//DTD SVG 1.1//EN" "http://www.w3.org/Graphics/SVG/1.1/DTD/svg11.dtd">
<!-- Creator: CorelDRAW 2020 (64-Bit) -->
<svg xmlns="http://www.w3.org/2000/svg" xml:space="preserve" width="100%" height="100%" version="1.1" style="shape-rendering:geometricPrecision; text-rendering:geometricPrecision; image-rendering:optimizeQuality; fill-rule:evenodd; clip-rule:evenodd"
viewBox="0 0 102400 21000"
 xmlns:xlink="http://www.w3.org/1999/xlink"
 xmlns:xodm="http://www.corel.com/coreldraw/odm/2003">
 <defs>
  <style type="text/css">
   <![CDATA[
    .str1 {stroke:black;stroke-width:282.22;stroke-miterlimit:22.9256}
    .str0 {stroke:black;stroke-width:20;stroke-miterlimit:22.9256}
    .fil4 {fill:none}
    .fil1 {fill:black}
    .fil0 {fill:#30AF44}
    .fil2 {fill:black;fill-rule:nonzero}
    .fil3 {fill:white;fill-rule:nonzero}
   ]]>
  </style>
 </defs>
 <g id="Слой_x0020_1">
  <metadata id="CorelCorpID_0Corel-Layer"/>
  <rect class="fil0 str0" x="-6.41" y="2.92" width="102400.02" height="21000.01"/>
  <rect class="fil1 str0" transform="matrix(8.29462 -1.29489E-08 -3.40245 6.77726 63131.6 5320.7)" width="3381.39" height="1529.3" rx="510" ry="510"/>
  <path class="fil2" d="M12279.49 15931.15c-488.01,0 -876.07,-82.32 -1164.17,-246.95l423.34 -1190.62c152.87,94.07 326.32,141.11 520.34,141.11 152.87,0 273.41,-52.92 361.6,-158.75 88.19,-105.83 132.29,-261.64 132.29,-467.43l0 -4647.85 1675.69 0 0 4656.67c0,587.96 -171.97,1053.92 -515.93,1397.88 -343.96,343.96 -821.68,515.94 -1433.16,515.94zm1111.25 -7099.65c-305.74,0 -552.69,-85.26 -740.83,-255.77 -188.15,-170.51 -282.23,-382.17 -282.23,-635 0,-252.82 94.08,-464.49 282.23,-635 188.14,-170.51 435.09,-255.76 740.83,-255.76 305.74,0 552.68,80.85 740.83,242.53 188.15,161.69 282.22,368.95 282.22,621.78 0,264.58 -94.07,483.59 -282.22,657.04 -188.15,173.45 -435.09,260.18 -740.83,260.18z"/>
  <path id="1" class="fil2" d="M17703.44 14220.17c-511.52,0 -973.07,-105.83 -1384.65,-317.49 -411.57,-211.67 -733.48,-505.65 -965.73,-881.95 -232.24,-376.29 -348.37,-802.57 -348.37,-1278.82 0,-470.37 116.13,-893.7 348.37,-1270 232.25,-376.29 552.69,-668.8 961.32,-877.53 408.64,-208.73 871.66,-313.09 1389.06,-313.09 517.41,0 981.9,104.36 1393.48,313.09 411.57,208.73 732.01,499.77 961.31,873.12 229.31,373.36 343.96,798.16 343.96,1274.41 0,476.25 -114.65,902.53 -343.96,1278.82 -229.3,376.3 -549.74,670.28 -961.31,881.95 -411.58,211.66 -876.07,317.49 -1393.48,317.49zm0 -1331.73c293.98,0 535.05,-101.42 723.2,-304.27 188.15,-202.85 282.22,-483.6 282.22,-842.26 0,-352.78 -94.07,-629.12 -282.22,-829.03 -188.15,-199.9 -429.22,-299.86 -723.2,-299.86 -293.98,0 -535.04,99.96 -723.19,299.86 -188.15,199.91 -282.22,476.25 -282.22,829.03 0,358.66 94.07,639.41 282.22,842.26 188.15,202.85 429.21,304.27 723.19,304.27z"/>
  <path id="2" class="fil2" d="M22915.74 14220.17c-399.82,0 -793.75,-45.56 -1181.81,-136.7 -388.05,-91.13 -699.68,-210.19 -934.86,-357.18l502.71 -1146.53c217.54,135.23 476.25,242.53 776.11,321.91 299.86,79.37 596.78,119.06 890.76,119.06 270.46,0 463.02,-27.93 577.68,-83.78 114.65,-55.86 171.97,-136.7 171.97,-242.54 0,-105.83 -69.08,-180.8 -207.25,-224.89 -138.17,-44.1 -357.19,-86.73 -657.05,-127.89 -382.18,-47.03 -707.03,-108.77 -974.55,-185.2 -267.52,-76.44 -498.3,-217.55 -692.32,-423.34 -194.03,-205.78 -291.05,-493.89 -291.05,-864.3 0,-305.74 91.14,-577.68 273.41,-815.8 182.26,-238.13 448.32,-426.27 798.16,-564.44 349.83,-138.18 768.76,-207.26 1256.77,-207.26 346.89,0 690.85,35.28 1031.87,105.83 341.02,70.56 626.18,170.51 855.49,299.86l-502.71 1137.71c-423.34,-235.18 -881.95,-352.78 -1375.83,-352.78 -264.59,0 -458.62,30.87 -582.09,92.61 -123.47,61.73 -185.21,142.58 -185.21,242.53 0,111.71 67.62,189.62 202.85,233.72 135.23,44.09 358.66,89.66 670.28,136.7 393.93,58.79 720.25,126.41 978.96,202.85 258.7,76.43 483.6,216.07 674.68,418.92 191.09,202.85 286.64,486.54 286.64,851.07 0,299.87 -91.14,568.86 -273.41,806.98 -182.27,238.13 -451.26,424.81 -806.98,560.04 -355.71,135.23 -783.46,202.84 -1283.22,202.84z"/>
  <path id="3" class="fil2" d="M29115.8 9281.29c593.84,0 1071.56,176.39 1433.16,529.16 361.59,352.78 542.39,884.89 542.39,1596.32l0 2734.03 -1675.69 0 0 -2460.62c0,-652.64 -261.64,-978.96 -784.93,-978.96 -288.1,0 -518.88,94.07 -692.33,282.22 -173.45,188.15 -260.17,470.37 -260.17,846.67l0 2310.69 -1675.69 0 0 -6544.02 1675.69 0 0 2204.86c182.27,-170.51 396.87,-299.87 643.82,-388.06 246.94,-88.19 511.53,-132.29 793.75,-132.29z"/>
  <path id="4" class="fil2" d="M37353.16 9360.66l0 3907.02c0,887.82 -241.07,1553.69 -723.19,1997.6 -482.13,443.91 -1175.93,665.87 -2081.39,665.87 -470.37,0 -911.34,-52.92 -1322.92,-158.75 -411.57,-105.84 -761.41,-261.65 -1049.51,-467.43l608.54 -1172.99c194.03,158.75 439.5,283.69 736.42,374.83 296.92,91.13 589.44,136.7 877.54,136.7 440.97,0 764.35,-97.02 970.14,-291.04 205.78,-194.03 308.68,-482.13 308.68,-864.31l0 -158.75c-323.38,376.3 -796.69,564.45 -1419.93,564.45 -423.34,0 -814.33,-95.55 -1172.99,-286.64 -358.66,-191.08 -643.82,-461.55 -855.49,-811.38 -211.66,-349.84 -317.5,-754.07 -317.5,-1212.68 0,-452.73 105.84,-854.01 317.5,-1203.85 211.67,-349.84 496.83,-620.3 855.49,-811.39 358.66,-191.09 749.65,-286.63 1172.99,-286.63 682.03,0 1181.8,220.48 1499.3,661.46l0 -582.09 1596.32 0zm-2698.75 3201.46c299.86,0 548.28,-91.13 745.24,-273.4 196.97,-182.27 295.45,-417.46 295.45,-705.56 0,-288.1 -97.01,-521.81 -291.04,-701.14 -194.02,-179.33 -443.91,-269 -749.65,-269 -305.74,0 -557.09,89.67 -754.06,269 -196.97,179.33 -295.45,413.04 -295.45,701.14 0,288.1 99.95,523.29 299.86,705.56 199.91,182.27 449.79,273.4 749.65,273.4z"/>
  <path id="5" class="fil2" d="M43456.22 9360.66l0 4780.14 -1596.32 0 0 -511.53c-176.39,194.03 -388.06,341.02 -635,440.97 -246.95,99.96 -508.59,149.93 -784.93,149.93 -617.36,0 -1109.78,-182.26 -1477.26,-546.8 -367.47,-364.54 -551.21,-911.34 -551.21,-1640.42l0 -2672.29 1675.69 0 0 2398.89c0,358.66 67.62,620.3 202.85,784.93 135.23,164.63 332.2,246.95 590.9,246.95 264.58,0 480.66,-92.61 648.23,-277.82 167.57,-185.2 251.35,-468.9 251.35,-851.07l0 -2301.88 1675.7 0z"/>
  <path id="6" class="fil2" d="M47645.45 9281.29c593.84,0 1071.56,176.39 1433.16,529.16 361.59,352.78 542.39,884.89 542.39,1596.32l0 2734.03 -1675.69 0 0 -2460.62c0,-652.64 -261.64,-978.96 -784.93,-978.96 -288.1,0 -518.88,94.07 -692.33,282.22 -173.45,188.15 -260.17,470.37 -260.17,846.67l0 2310.69 -1675.69 0 0 -4780.14 1596.31 0 0 520.35c188.15,-194.03 411.58,-342.49 670.28,-445.38 258.71,-102.89 540.93,-154.34 846.67,-154.34z"/>
  <polygon id="7" class="fil2" points="50670.52,7596.78 52346.21,7596.78 52346.21,14140.8 50670.52,14140.8 "/>
  <path id="8" class="fil2" d="M58466.9 9360.66l-2063.75 4974.17c-241.07,587.96 -535.05,1001 -881.95,1239.13 -346.89,238.12 -770.23,357.19 -1270,357.19 -252.82,0 -507.11,-39.69 -762.88,-119.07 -255.76,-79.37 -463.02,-183.73 -621.77,-313.09l582.08 -1172.98c94.08,88.19 207.26,157.28 339.55,207.26 132.29,49.97 266.06,74.96 401.29,74.96 158.75,0 289.57,-32.34 392.46,-97.01 102.9,-64.68 189.62,-167.57 260.18,-308.68l-2046.11 -4841.88 1719.79 0 1172.98 2919.24 1181.81 -2919.24 1596.32 0z"/>
  <path id="9" class="fil3" d="M67145.23 9281.29c593.84,0 1071.56,176.39 1433.16,529.16 361.59,352.78 542.39,884.89 542.39,1596.32l0 2734.03 -1675.69 0 0 -2460.62c0,-652.64 -261.64,-978.96 -784.93,-978.96 -288.1,0 -518.88,94.07 -692.33,282.22 -173.45,188.15 -260.17,470.37 -260.17,846.67l0 2310.69 -1675.69 0 0 -4780.14 1596.31 0 0 520.35c188.15,-194.03 411.58,-342.49 670.28,-445.38 258.71,-102.89 540.93,-154.34 846.67,-154.34z"/>
  <path id="10" class="fil3" d="M75126.83 11759.55c0,11.76 -8.82,149.93 -26.46,414.51l-3474.86 0c70.55,246.95 207.25,436.57 410.1,568.86 202.85,132.29 457.14,198.44 762.88,198.44 229.31,0 427.75,-32.34 595.32,-97.02 167.56,-64.67 336.6,-170.51 507.11,-317.5l881.95 917.22c-464.49,517.41 -1143.59,776.11 -2037.29,776.11 -558.57,0 -1049.52,-105.83 -1472.85,-317.49 -423.33,-211.67 -751.12,-505.65 -983.37,-881.95 -232.24,-376.29 -348.37,-802.57 -348.37,-1278.82 0,-470.37 113.19,-892.23 339.55,-1265.59 226.37,-373.35 539.46,-665.87 939.27,-877.53 399.82,-211.67 849.61,-317.5 1349.38,-317.5 476.25,0 908.4,98.48 1296.46,295.45 388.05,196.97 695.26,482.13 921.63,855.49 226.36,373.35 339.55,815.79 339.55,1327.32zm-2548.82 -1287.64c-258.71,0 -474.78,73.5 -648.23,220.49 -173.45,146.99 -283.69,346.9 -330.73,599.72l1957.92 0c-47.04,-252.82 -157.28,-452.73 -330.73,-599.72 -173.45,-146.99 -389.53,-220.49 -648.23,-220.49z"/>
  <path id="11" class="fil3" d="M77640.37 14220.17c-399.82,0 -793.75,-45.56 -1181.81,-136.7 -388.05,-91.13 -699.68,-210.19 -934.86,-357.18l502.71 -1146.53c217.54,135.23 476.25,242.53 776.11,321.91 299.86,79.37 596.78,119.06 890.76,119.06 270.46,0 463.02,-27.93 577.68,-83.78 114.65,-55.86 171.97,-136.7 171.97,-242.54 0,-105.83 -69.08,-180.8 -207.25,-224.89 -138.17,-44.1 -357.19,-86.73 -657.05,-127.89 -382.18,-47.03 -707.03,-108.77 -974.55,-185.2 -267.52,-76.44 -498.3,-217.55 -692.32,-423.34 -194.03,-205.78 -291.05,-493.89 -291.05,-864.3 0,-305.74 91.14,-577.68 273.41,-815.8 182.26,-238.13 448.32,-426.27 798.16,-564.44 349.83,-138.18 768.76,-207.26 1256.77,-207.26 346.89,0 690.85,35.28 1031.87,105.83 341.02,70.56 626.18,170.51 855.49,299.86l-502.71 1137.71c-423.34,-235.18 -881.95,-352.78 -1375.83,-352.78 -264.59,0 -458.62,30.87 -582.09,92.61 -123.47,61.73 -185.21,142.58 -185.21,242.53 0,111.71 67.62,189.62 202.85,233.72 135.23,44.09 358.66,89.66 670.28,136.7 393.93,58.79 720.25,126.41 978.96,202.85 258.7,76.43 483.6,216.07 674.68,418.92 191.09,202.85 286.64,486.54 286.64,851.07 0,299.87 -91.14,568.86 -273.41,806.98 -182.27,238.13 -451.26,424.81 -806.98,560.04 -355.71,135.23 -783.46,202.84 -1283.22,202.84z"/>
  <path id="12" class="fil3" d="M80727.17 9360.66l1675.69 0 0 4780.14 -1675.69 0 0 -4780.14zm837.84 -529.16c-305.74,0 -552.68,-85.26 -740.83,-255.77 -188.15,-170.51 -282.22,-382.17 -282.22,-635 0,-252.82 94.07,-464.49 282.22,-635 188.15,-170.51 435.09,-255.76 740.83,-255.76 305.74,0 552.69,80.85 740.84,242.53 188.14,161.69 282.22,368.95 282.22,621.78 0,264.58 -94.08,483.59 -282.22,657.04 -188.15,173.45 -435.1,260.18 -740.84,260.18z"/>
  <polygon id="13" class="fil3" points="83487.65,7596.78 85163.34,7596.78 85163.34,14140.8 83487.65,14140.8 "/>
  <ellipse class="fil4 str1" cx="91811.37" cy="4890.19" rx="2162.54" ry="2116.5"/>
  <polygon class="fil2" points="90721.24,5789.65 90721.24,4228.96 90138.46,4228.96 90138.46,4021.53 91538.63,4021.53 91538.63,4228.96 90955.84,4228.96 90955.84,5789.65 "/>
  <path id="1" class="fil2" d="M91775.29 5789.65l0 -1768.12 350.66 0 418.16 1251.6c38.68,116.47 66.67,203.72 84.37,261.76 20.17,-64.21 51.86,-158.87 94.66,-283.58l425.57 -1229.78 313.21 0 0 1768.12 -224.72 0 0 -1479.19 -516.12 1479.19 -210.72 0 -510.35 -1506.36 0 1506.36 -224.72 0z"/>
 </g>
</svg>
